REM DIRINDEX 1\2\4,1\2\5,1\2\6,1\3\7,1\3\8,1\3\9,1\3\10
REM DIRNAME folder01,folder02,folder03,folder04,folder05,folder06,folder07,folder08,folder09,folder10
TITLE ""
FILE "a_136.mp3" MP3
  TRACK 01 AUDIO
    TITLE "0:"
    INDEX 01 00:00:00
  TRACK 02 AUDIO
    TITLE "4:cjc057_02958"
    INDEX 01 00:00:13
  TRACK 03 AUDIO
    TITLE "0:"
    INDEX 01 00:01:50
  TRACK 04 AUDIO
    TITLE "5:cjc057_02959"
    INDEX 01 00:02:08
  TRACK 05 AUDIO
    TITLE "0:"
    INDEX 01 00:04:05
  TRACK 06 AUDIO
    TITLE "4:cjc057_02960"
    INDEX 01 00:05:12
  TRACK 07 AUDIO
    TITLE "0:"
    INDEX 01 00:06:22
  TRACK 08 AUDIO
    TITLE "5:cjc057_02961"
    INDEX 01 00:06:57
  TRACK 09 AUDIO
    TITLE "0:"
    INDEX 01 00:10:19
  TRACK 10 AUDIO
    TITLE "4:cjc057_02962"
    INDEX 01 00:11:25
  TRACK 11 AUDIO
    TITLE "0:"
    INDEX 01 00:12:65
  TRACK 12 AUDIO
    TITLE "5:cjc057_02963"
    INDEX 01 00:13:20
  TRACK 13 AUDIO
    TITLE "0:"
    INDEX 01 00:16:30
  TRACK 14 AUDIO
    TITLE "4:cjc057_02964"
    INDEX 01 00:17:37
  TRACK 15 AUDIO
    TITLE "0:"
    INDEX 01 00:18:54
  TRACK 16 AUDIO
    TITLE "5:cjc057_02965"
    INDEX 01 00:19:13
  TRACK 17 AUDIO
    TITLE "0:"
    INDEX 01 00:21:58
  TRACK 18 AUDIO
    TITLE "4:cjc057_02966"
    INDEX 01 00:22:66
  TRACK 19 AUDIO
    TITLE "0:"
    INDEX 01 00:24:20
  TRACK 20 AUDIO
    TITLE "5:cjc057_02967"
    INDEX 01 00:24:55
  TRACK 21 AUDIO
    TITLE "0:"
    INDEX 01 00:27:02
  TRACK 22 AUDIO
    TITLE "4:cjc057_02968"
    INDEX 01 00:28:10
  TRACK 23 AUDIO
    TITLE "0:"
    INDEX 01 00:29:38
  TRACK 24 AUDIO
    TITLE "5:cjc057_02969"
    INDEX 01 00:29:72
  TRACK 25 AUDIO
    TITLE "0:"
    INDEX 01 00:32:19
  TRACK 26 AUDIO
    TITLE "4:cjc057_02970"
    INDEX 01 00:33:28
  TRACK 27 AUDIO
    TITLE "0:"
    INDEX 01 00:34:49
  TRACK 28 AUDIO
    TITLE "5:cjc057_02971"
    INDEX 01 00:35:08
  TRACK 29 AUDIO
    TITLE "0:"
    INDEX 01 00:37:24
  TRACK 30 AUDIO
    TITLE "4:cjc057_02972"
    INDEX 01 00:38:31
  TRACK 31 AUDIO
    TITLE "0:"
    INDEX 01 00:39:56
  TRACK 32 AUDIO
    TITLE "5:cjc057_02973"
    INDEX 01 00:40:11
  TRACK 33 AUDIO
    TITLE "0:"
    INDEX 01 00:42:14
  TRACK 34 AUDIO
    TITLE "4:cjc057_02974"
    INDEX 01 00:43:23
  TRACK 35 AUDIO
    TITLE "0:"
    INDEX 01 00:44:56
  TRACK 36 AUDIO
    TITLE "5:cjc057_02975"
    INDEX 01 00:45:14
  TRACK 37 AUDIO
    TITLE "0:"
    INDEX 01 00:46:27
  TRACK 38 AUDIO
    TITLE "4:cjc057_02976"
    INDEX 01 00:47:34
  TRACK 39 AUDIO
    TITLE "0:"
    INDEX 01 00:48:67
  TRACK 40 AUDIO
    TITLE "5:cjc057_02977"
    INDEX 01 00:49:23
  TRACK 41 AUDIO
    TITLE "0:"
    INDEX 01 00:52:63
  TRACK 42 AUDIO
    TITLE "4:cjc057_02978"
    INDEX 01 00:53:70
  TRACK 43 AUDIO
    TITLE "0:"
    INDEX 01 00:55:14
  TRACK 44 AUDIO
    TITLE "5:cjc057_02979"
    INDEX 01 00:55:48
  TRACK 45 AUDIO
    TITLE "0:"
    INDEX 01 00:57:31
  TRACK 46 AUDIO
    TITLE "4:cjc057_02980"
    INDEX 01 00:58:40
  TRACK 47 AUDIO
    TITLE "0:"
    INDEX 01 01:00:00
  TRACK 48 AUDIO
    TITLE "5:cjc057_02981"
    INDEX 01 01:00:35
  TRACK 49 AUDIO
    TITLE "0:"
    INDEX 01 01:03:31
  TRACK 50 AUDIO
    TITLE "4:cjc057_02982"
    INDEX 01 01:04:41
  TRACK 51 AUDIO
    TITLE "0:"
    INDEX 01 01:06:18
  TRACK 52 AUDIO
    TITLE "5:cjc057_02983"
    INDEX 01 01:06:51
  TRACK 53 AUDIO
    TITLE "0:"
    INDEX 01 01:07:70
  TRACK 54 AUDIO
    TITLE "4:cjc057_02984"
    INDEX 01 01:09:03
  TRACK 55 AUDIO
    TITLE "0:"
    INDEX 01 01:10:51
  TRACK 56 AUDIO
    TITLE "5:cjc057_02985"
    INDEX 01 01:11:07
  TRACK 57 AUDIO
    TITLE "0:"
    INDEX 01 01:13:30
  TRACK 58 AUDIO
    TITLE "4:cjc057_02986"
    INDEX 01 01:14:33
  TRACK 59 AUDIO
    TITLE "0:"
    INDEX 01 01:15:64
  TRACK 60 AUDIO
    TITLE "5:cjc057_02987"
    INDEX 01 01:16:20
  TRACK 61 AUDIO
    TITLE "0:"
    INDEX 01 01:17:37
  TRACK 62 AUDIO
    TITLE "4:cjc057_02988"
    INDEX 01 01:18:41
  TRACK 63 AUDIO
    TITLE "0:"
    INDEX 01 01:20:08
  TRACK 64 AUDIO
    TITLE "5:cjc057_02989"
    INDEX 01 01:20:42
  TRACK 65 AUDIO
    TITLE "0:"
    INDEX 01 01:22:66
  TRACK 66 AUDIO
    TITLE "4:cjc057_02990"
    INDEX 01 01:23:73
  TRACK 67 AUDIO
    TITLE "0:"
    INDEX 01 01:25:23
  TRACK 68 AUDIO
    TITLE "5:cjc057_02991"
    INDEX 01 01:25:57
  TRACK 69 AUDIO
    TITLE "0:"
    INDEX 01 01:27:08
  TRACK 70 AUDIO
    TITLE "4:cjc057_02992"
    INDEX 01 01:28:16
  TRACK 71 AUDIO
    TITLE "0:"
    INDEX 01 01:29:23
  TRACK 72 AUDIO
    TITLE "5:cjc057_02993"
    INDEX 01 01:29:56
  TRACK 73 AUDIO
    TITLE "0:"
    INDEX 01 01:30:73
  TRACK 74 AUDIO
    TITLE "4:cjc057_02994"
    INDEX 01 01:32:06
  TRACK 75 AUDIO
    TITLE "0:"
    INDEX 01 01:33:44
  TRACK 76 AUDIO
    TITLE "5:cjc057_02995"
    INDEX 01 01:34:03
  TRACK 77 AUDIO
    TITLE "0:"
    INDEX 01 01:35:14
  TRACK 78 AUDIO
    TITLE "4:cjc057_02996"
    INDEX 01 01:36:21
  TRACK 79 AUDIO
    TITLE "0:"
    INDEX 01 01:37:60
  TRACK 80 AUDIO
    TITLE "5:cjc057_02997"
    INDEX 01 01:38:20
  TRACK 81 AUDIO
    TITLE "0:"
    INDEX 01 01:39:31
  TRACK 82 AUDIO
    TITLE "4:cjc057_02998"
    INDEX 01 01:40:38
  TRACK 83 AUDIO
    TITLE "0:"
    INDEX 01 01:41:63
  TRACK 84 AUDIO
    TITLE "5:cjc057_02999"
    INDEX 01 01:42:20
  TRACK 85 AUDIO
    TITLE "0:"
    INDEX 01 01:43:43
  TRACK 86 AUDIO
    TITLE "4:cjc057_03000"
    INDEX 01 01:44:52
  TRACK 87 AUDIO
    TITLE "0:"
    INDEX 01 01:46:04
  TRACK 88 AUDIO
    TITLE "5:cjc057_03001"
    INDEX 01 01:46:37
  TRACK 89 AUDIO
    TITLE "0:"
    INDEX 01 01:47:70
  TRACK 90 AUDIO
    TITLE "4:cjc057_03002"
    INDEX 01 01:49:02
  TRACK 91 AUDIO
    TITLE "0:"
    INDEX 01 01:50:37
  TRACK 92 AUDIO
    TITLE "5:cjc057_03003"
    INDEX 01 01:50:70
  TRACK 93 AUDIO
    TITLE "0:"
    INDEX 01 01:53:18
  TRACK 94 AUDIO
    TITLE "4:cjc057_03004"
    INDEX 01 01:54:25
  TRACK 95 AUDIO
    TITLE "0:"
    INDEX 01 01:55:54
  TRACK 96 AUDIO
    TITLE "5:cjc057_03005"
    INDEX 01 01:56:12
  TRACK 97 AUDIO
    TITLE "0:"
    INDEX 01 01:57:27
  TRACK 98 AUDIO
    TITLE "4:cjc057_03006"
    INDEX 01 01:58:34
  TRACK 99 AUDIO
    TITLE "0:"
    INDEX 01 02:00:00
  TRACK 100 AUDIO
    TITLE "5:cjc057_03007"
    INDEX 01 02:00:31
  TRACK 101 AUDIO
    TITLE "0:"
    INDEX 01 02:01:56
  TRACK 102 AUDIO
    TITLE "4:cjc057_03008"
    INDEX 01 02:02:66
  TRACK 103 AUDIO
    TITLE "0:"
    INDEX 01 02:04:29
  TRACK 104 AUDIO
    TITLE "5:cjc057_03009"
    INDEX 01 02:04:62
  TRACK 105 AUDIO
    TITLE "0:"
    INDEX 01 02:07:12
  TRACK 106 AUDIO
    TITLE "4:cjc057_03010"
    INDEX 01 02:08:21
  TRACK 107 AUDIO
    TITLE "0:"
    INDEX 01 02:09:46
  TRACK 108 AUDIO
    TITLE "5:cjc057_03011"
    INDEX 01 02:10:02
  TRACK 109 AUDIO
    TITLE "0:"
    INDEX 01 02:11:41
  TRACK 110 AUDIO
    TITLE "4:cjc057_03012"
    INDEX 01 02:12:48
  TRACK 111 AUDIO
    TITLE "0:"
    INDEX 01 02:13:65
  TRACK 112 AUDIO
    TITLE "5:cjc057_03013"
    INDEX 01 02:14:24
  TRACK 113 AUDIO
    TITLE "0:"
    INDEX 01 02:16:34
